<mxfile host="app.diagrams.net" agent="Mozilla/5.0 (Windows NT 10.0; Win64; x64) AppleWebKit/537.36 (KHTML, like Gecko) Chrome/131.0.0.0 Safari/537.36 Edg/131.0.0.0" version="24.8.6">
  <diagram name="第 1 页" id="KiU0GPbnZZaJ9fmfo21C">
    <mxGraphModel dx="1221" dy="668" grid="1" gridSize="10" guides="1" tooltips="1" connect="1" arrows="1" fold="1" page="1" pageScale="1" pageWidth="827" pageHeight="1169" math="0" shadow="0">
      <root>
        <mxCell id="0" />
        <mxCell id="1" parent="0" />
        <mxCell id="dBsx60QmYunk5ZgxW7Kb-7" style="edgeStyle=orthogonalEdgeStyle;rounded=0;orthogonalLoop=1;jettySize=auto;html=1;entryX=0;entryY=0.5;entryDx=0;entryDy=0;" edge="1" parent="1" source="dBsx60QmYunk5ZgxW7Kb-2" target="dBsx60QmYunk5ZgxW7Kb-3">
          <mxGeometry relative="1" as="geometry" />
        </mxCell>
        <mxCell id="dBsx60QmYunk5ZgxW7Kb-2" value="&lt;font face=&quot;SimSun&quot; style=&quot;font-size: 18px;&quot;&gt;叶轮&lt;/font&gt;" style="rounded=0;whiteSpace=wrap;html=1;" vertex="1" parent="1">
          <mxGeometry x="99" y="310" width="90" height="50" as="geometry" />
        </mxCell>
        <mxCell id="dBsx60QmYunk5ZgxW7Kb-8" style="edgeStyle=orthogonalEdgeStyle;rounded=0;orthogonalLoop=1;jettySize=auto;html=1;entryX=0;entryY=0.5;entryDx=0;entryDy=0;" edge="1" parent="1" source="dBsx60QmYunk5ZgxW7Kb-3" target="dBsx60QmYunk5ZgxW7Kb-4">
          <mxGeometry relative="1" as="geometry" />
        </mxCell>
        <mxCell id="dBsx60QmYunk5ZgxW7Kb-3" value="&lt;font face=&quot;SimSun&quot;&gt;&lt;span style=&quot;font-size: 18px;&quot;&gt;主轴&lt;/span&gt;&lt;/font&gt;" style="rounded=0;whiteSpace=wrap;html=1;" vertex="1" parent="1">
          <mxGeometry x="269" y="310" width="90" height="50" as="geometry" />
        </mxCell>
        <mxCell id="dBsx60QmYunk5ZgxW7Kb-9" style="edgeStyle=orthogonalEdgeStyle;rounded=0;orthogonalLoop=1;jettySize=auto;html=1;exitX=1;exitY=0.5;exitDx=0;exitDy=0;entryX=0;entryY=0.5;entryDx=0;entryDy=0;" edge="1" parent="1" source="dBsx60QmYunk5ZgxW7Kb-4" target="dBsx60QmYunk5ZgxW7Kb-5">
          <mxGeometry relative="1" as="geometry" />
        </mxCell>
        <mxCell id="dBsx60QmYunk5ZgxW7Kb-4" value="&lt;font face=&quot;SimSun&quot;&gt;&lt;span style=&quot;font-size: 18px;&quot;&gt;齿轮箱&lt;/span&gt;&lt;/font&gt;" style="rounded=0;whiteSpace=wrap;html=1;" vertex="1" parent="1">
          <mxGeometry x="409" y="310" width="90" height="50" as="geometry" />
        </mxCell>
        <mxCell id="dBsx60QmYunk5ZgxW7Kb-10" style="edgeStyle=orthogonalEdgeStyle;rounded=0;orthogonalLoop=1;jettySize=auto;html=1;entryX=0;entryY=0.5;entryDx=0;entryDy=0;" edge="1" parent="1" source="dBsx60QmYunk5ZgxW7Kb-5" target="dBsx60QmYunk5ZgxW7Kb-6">
          <mxGeometry relative="1" as="geometry" />
        </mxCell>
        <mxCell id="dBsx60QmYunk5ZgxW7Kb-5" value="&lt;font face=&quot;SimSun&quot;&gt;&lt;span style=&quot;font-size: 18px;&quot;&gt;发电机&lt;/span&gt;&lt;/font&gt;" style="rounded=0;whiteSpace=wrap;html=1;" vertex="1" parent="1">
          <mxGeometry x="549" y="310" width="90" height="50" as="geometry" />
        </mxCell>
        <mxCell id="dBsx60QmYunk5ZgxW7Kb-6" value="&lt;font face=&quot;SimSun&quot;&gt;&lt;span style=&quot;font-size: 18px;&quot;&gt;电网&lt;/span&gt;&lt;/font&gt;" style="rounded=0;whiteSpace=wrap;html=1;" vertex="1" parent="1">
          <mxGeometry x="699" y="310" width="90" height="50" as="geometry" />
        </mxCell>
        <mxCell id="dBsx60QmYunk5ZgxW7Kb-11" value="&lt;font style=&quot;font-size: 18px;&quot;&gt;机械能&lt;/font&gt;" style="text;html=1;align=center;verticalAlign=middle;resizable=0;points=[];autosize=1;strokeColor=none;fillColor=none;" vertex="1" parent="1">
          <mxGeometry x="189" y="290" width="80" height="40" as="geometry" />
        </mxCell>
        <mxCell id="dBsx60QmYunk5ZgxW7Kb-12" value="&lt;font style=&quot;font-size: 18px;&quot;&gt;电能&lt;/font&gt;" style="text;html=1;align=center;verticalAlign=middle;resizable=0;points=[];autosize=1;strokeColor=none;fillColor=none;" vertex="1" parent="1">
          <mxGeometry x="639" y="290" width="60" height="40" as="geometry" />
        </mxCell>
        <mxCell id="dBsx60QmYunk5ZgxW7Kb-13" style="edgeStyle=orthogonalEdgeStyle;rounded=0;orthogonalLoop=1;jettySize=auto;html=1;entryX=0;entryY=0.5;entryDx=0;entryDy=0;" edge="1" parent="1">
          <mxGeometry relative="1" as="geometry">
            <mxPoint x="39" y="335" as="sourcePoint" />
            <mxPoint x="99" y="335" as="targetPoint" />
          </mxGeometry>
        </mxCell>
        <mxCell id="dBsx60QmYunk5ZgxW7Kb-14" value="&lt;font style=&quot;font-size: 18px;&quot;&gt;风能&lt;/font&gt;" style="text;html=1;align=center;verticalAlign=middle;resizable=0;points=[];autosize=1;strokeColor=none;fillColor=none;" vertex="1" parent="1">
          <mxGeometry x="39" y="290" width="60" height="40" as="geometry" />
        </mxCell>
      </root>
    </mxGraphModel>
  </diagram>
</mxfile>
